<svg xmlns="http://www.w3.org/2000/svg" xmlns:xlink="http://www.w3.org/1999/xlink" width="21" height="24" viewBox="0 0 21 24"><script xmlns=""/><defs><path id="rhgda" d="M32 6283.16h20.898v21.716H32z"/><path id="rhgdc" d="M49.418 6283.215l-15.073 2.846c-1.29.235-2.345 1.513-2.345 3.053v9.62c0 1.578 1.054 2.828 2.342 3.075l15.082 3.01c1.91.366 3.474-1.068 3.474-3.123v-15.216c0-2.27-1.566-3.613-3.48-3.265"/><path id="rhgdd" d="M45.389 6298.417c-.932 1.068-2.191 1.78-3.702 1.78-3.425 0-5.917-2.796-5.917-6.686 0-3.864 2.492-6.685 5.917-6.685 1.335 0 2.468.508 3.35 1.347V6281h3.273v18.866h-2.67zm-6.296-4.906c0 2.263 1.184 3.737 2.972 3.737 1.939 0 2.971-1.474 2.971-3.737 0-2.262-1.032-3.736-2.971-3.736-1.788 0-2.972 1.474-2.972 3.736z"/><clipPath id="rhgdb"><use xlink:href="#rhgda"/></clipPath></defs><g><g transform="translate(-32 -6281)"><g><g><g/><g clip-path="url(#rhgdb)"><use fill="#00e58c" xlink:href="#rhgdc"/></g></g><g><use xlink:href="#rhgdd"/></g></g></g></g></svg>