<svg width="343" height="141" viewBox="0 0 343 141" fill="none" xmlns="http://www.w3.org/2000/svg">
<rect width="343" height="141" rx="12" fill="#DCE0E9"/>
<path d="M93.1454 14.2241L26.0508 25.9548C20.5157 26.9214 16 32.2122 16 38.5597V78.2053C16 84.7086 20.5132 89.8752 26.0182 90.871L93.178 103.288C101.343 104.781 108.063 98.8985 108.063 90.4035V27.6981C108.063 18.3315 101.34 12.7924 93.1454 14.2241V14.2241Z" fill="#00E78E"/>
<path d="M118.499 59.6886C118.499 64.3561 120.869 67.4069 124.741 67.4069C127.333 67.4069 129.319 66.3477 130.952 63.4236L136.778 66.1919C134.503 71.171 129.99 73.4743 124.58 73.4743C116.866 73.4743 111.361 67.7477 111.361 59.6886C111.361 51.5978 116.866 45.9029 124.58 45.9029C129.958 45.9029 134.503 48.2062 136.778 53.1829L130.952 55.9536C129.319 52.9978 127.333 51.9703 124.741 51.9703C120.869 51.9703 118.499 55.0211 118.499 59.6886ZM166.644 59.6886C166.644 67.7161 160.914 73.4743 152.621 73.4743C144.331 73.4743 138.666 67.7185 138.666 59.6886C138.666 51.722 144.331 45.9029 152.624 45.9029C160.947 45.9029 166.644 51.722 166.644 59.6886ZM159.536 59.6886C159.536 55.1136 156.944 51.9703 152.624 51.9703C148.366 51.9703 145.771 55.1136 145.771 59.6886C145.771 64.2952 148.366 67.4069 152.624 67.4069C156.944 67.4069 159.536 64.2952 159.536 59.6886ZM178.231 54.4295V72.7877H171.22V46.5578H176.951L177.432 49.0803C179.736 47.0253 182.871 45.8736 186.01 45.8736C190.17 45.8736 192.476 47.3369 193.724 49.6086C196.093 47.2128 199.484 45.8736 202.848 45.8736C210.787 45.8736 211.907 51.2569 211.907 56.7328V72.7926H204.894V56.5477C204.894 52.9394 203.807 51.9436 201.182 51.9436C198.973 51.9436 196.637 53.0003 195.036 54.5561C195.101 55.3036 195.101 56.0169 195.101 56.7669V72.8243H188.088V56.5794C188.088 52.9686 187.001 51.9728 184.377 51.9728C182.135 51.9436 179.929 52.971 178.231 54.4319V54.4295ZM225.031 70.706V81.9693H218.02V46.587H223.751L224.294 49.5745C226.28 47.3662 229 45.9029 232.234 45.9029C239.565 45.9029 244.909 51.6587 244.909 59.6886C244.909 67.6552 239.565 73.4743 232.234 73.4743C229.354 73.4743 226.919 72.4469 225.031 70.706ZM237.771 59.6886C237.771 55.0211 235.242 51.9703 231.402 51.9703C227.24 51.9703 225.031 55.0211 225.031 59.6886C225.031 64.3561 227.24 67.4069 231.402 67.4069C235.242 67.4069 237.771 64.3561 237.771 59.6886ZM256.112 73.0702C251.248 73.0702 248.398 70.611 248.398 65.1036V36.1004H255.411V63.6403C255.411 65.7877 256.21 66.6277 258.066 66.6277V72.9776C257.522 73.0069 256.849 73.0702 256.112 73.0702ZM265.878 34.2013C268.372 34.2013 270.293 36.1321 270.293 38.5596C270.293 40.8629 268.342 42.7912 265.878 42.7912C263.443 42.7912 261.459 40.8629 261.459 38.5596C261.459 36.1321 263.443 34.2013 265.878 34.2013ZM262.356 46.587H269.366V72.8243H262.354L262.356 46.587ZM281.083 59.6886C281.083 64.3561 283.45 67.4069 287.324 67.4069C289.916 67.4069 291.902 66.3477 293.533 63.4236L299.361 66.1919C297.087 71.171 292.574 73.4743 287.164 73.4743C279.45 73.4743 273.942 67.7477 273.942 59.6886C273.942 51.5978 279.45 45.9029 287.164 45.9029C292.541 45.9029 297.087 48.2062 299.361 53.1829L293.533 55.9536C291.902 52.9978 289.916 51.9703 287.324 51.9703C283.45 51.9703 281.083 55.0211 281.083 59.6886ZM319.142 70.4869C317.191 72.3227 314.341 73.5376 311.363 73.5376C305.986 73.5376 301.217 69.771 301.217 64.6677C301.217 59.0969 305.953 55.7686 311.749 55.7686C314.661 55.7686 316.615 56.8253 317.957 58.0086V55.2695C317.957 53.122 316.167 51.5978 312.836 51.5978C310.852 51.5978 308.355 51.9703 305.507 53.4969L303.521 48.4569C306.977 46.7112 309.955 45.9029 314.053 45.9029C321.318 45.9029 325 49.8862 325 56.4528V72.8218H319.463L319.142 70.4869ZM308.355 64.6677C308.355 66.7519 310.338 68.1227 312.836 68.1227C315.365 68.1227 317.254 66.7519 317.319 64.6677C317.319 62.5836 315.43 61.1519 312.836 61.1519C310.338 61.1519 308.355 62.5836 308.355 64.6677ZM91.8984 73.4743C87.5755 73.4743 84.1843 71.5752 81.5896 67.7477L85.9425 64.2952C88.4721 67.1877 90.1377 67.9669 92.6973 67.9669C94.5232 67.9669 95.8656 67.0319 95.8656 65.6003C95.8656 63.8277 94.1375 63.0194 89.4639 62.0211C85.0484 61.0886 82.3585 58.7244 82.3585 53.9328C82.3585 49.482 86.2005 45.747 92.507 45.747C96.9225 45.747 100.156 47.8312 101.949 50.2587L97.6288 54.0253C96.6996 52.7495 94.7786 51.442 92.1213 51.442C89.9774 51.442 88.5673 52.3429 88.5673 53.9011C88.5673 55.2695 89.4339 56.1095 93.2108 56.9495C98.811 58.1936 102.205 60.3095 102.205 65.1961C102.205 70.2677 97.7215 73.4743 91.8984 73.4743ZM80.2772 58.6295C80.2772 51.2862 75.5712 45.9029 67.3462 45.9029C59.3116 45.9029 53.9017 51.4103 53.9017 59.6886C53.9017 67.7161 59.8876 73.4743 67.8571 73.4743C73.6176 73.4743 77.2041 71.171 79.9892 66.4403L74.389 63.6086C72.6609 66.3794 70.1313 67.4994 67.8571 67.4994C64.0802 67.5627 61.7109 65.4469 61.1048 62.0528H79.9892C80.2146 60.9644 80.2772 59.6229 80.2772 58.6295ZM61.2626 56.7011C61.8712 53.3095 63.8573 51.2545 67.2485 51.2545C70.7699 51.2545 72.8512 53.3095 73.1392 56.7011H61.2626ZM43.37 36.1004V48.6736C41.4816 46.9303 39.0472 45.9029 36.1995 45.9029C28.8687 45.9029 23.5239 51.722 23.5239 59.6886C23.5239 67.7185 28.8687 73.4743 36.1995 73.4743C39.4304 73.4743 42.1228 72.0135 44.1389 69.8027L44.6824 72.7902H50.4129V36.1004H43.37ZM36.9985 67.4069C33.159 67.4069 30.6294 64.3561 30.6294 59.6886C30.6294 55.0211 33.159 51.9703 36.9985 51.9703C41.161 51.9703 43.37 55.0211 43.37 59.6886C43.37 64.3561 41.161 67.4069 36.9985 67.4069Z" fill="black"/>
<path d="M311.357 92.0853L249.297 96.5521C244.177 96.9202 240 98.9347 240 101.352V116.448C240 118.924 244.175 120.891 249.267 121.27L311.387 125.999C318.939 126.567 325.155 124.327 325.155 121.092V97.2159C325.155 93.6493 318.937 91.5402 311.357 92.0853V92.0853Z" fill="#00E78E"/>
<path d="M268.545 104.327L265.794 105.062C265.696 104.698 265.409 104.404 264.933 104.18C264.471 103.956 263.897 103.844 263.211 103.844C262.427 103.844 261.797 103.984 261.321 104.264C260.845 104.544 260.607 104.915 260.607 105.377C260.607 105.685 260.705 105.951 260.901 106.175C261.111 106.385 261.405 106.56 261.783 106.7C262.175 106.826 262.651 106.903 263.211 106.931C265.185 107.029 266.711 107.491 267.789 108.317C268.867 109.129 269.406 110.235 269.406 111.635C269.406 113.021 268.832 114.148 267.684 115.016C266.55 115.884 265.059 116.318 263.211 116.318C262.161 116.318 261.209 116.171 260.355 115.877C259.501 115.583 258.801 115.17 258.255 114.638C257.709 114.106 257.338 113.483 257.142 112.769L259.893 112.034C260.019 112.524 260.383 112.916 260.985 113.21C261.587 113.49 262.329 113.63 263.211 113.63C264.191 113.63 264.989 113.448 265.605 113.084C266.221 112.706 266.529 112.223 266.529 111.635C266.529 111.229 266.396 110.886 266.13 110.606C265.878 110.312 265.5 110.081 264.996 109.913C264.506 109.745 263.904 109.64 263.19 109.598C261.44 109.514 260.089 109.108 259.137 108.38C258.199 107.638 257.73 106.637 257.73 105.377C257.73 104.117 258.234 103.102 259.242 102.332C260.25 101.548 261.573 101.156 263.211 101.156C264.121 101.156 264.947 101.289 265.689 101.555C266.445 101.821 267.061 102.192 267.537 102.668C268.027 103.144 268.363 103.697 268.545 104.327ZM286.648 116.087H283.96V109.703C283.96 108.947 283.82 108.415 283.54 108.107C283.26 107.799 282.84 107.645 282.28 107.645C281.72 107.645 281.216 107.827 280.768 108.191C280.334 108.555 280.117 109.059 280.117 109.703V116.087H277.429V109.703C277.429 109.185 277.359 108.772 277.219 108.464C277.093 108.156 276.911 107.946 276.673 107.834C276.435 107.708 276.127 107.645 275.749 107.645C275.189 107.645 274.685 107.827 274.237 108.191C273.789 108.555 273.565 109.059 273.565 109.703V116.087H270.898V105.335H273.565V106.238C274.293 105.482 275.168 105.104 276.19 105.104C277.758 105.104 278.871 105.727 279.529 106.973C279.879 106.399 280.327 105.944 280.873 105.608C281.433 105.272 282.049 105.104 282.721 105.104C283.897 105.104 284.842 105.489 285.556 106.259C286.284 107.015 286.648 108.163 286.648 109.703V116.087ZM292.459 111.404C292.095 111.404 291.794 111.474 291.556 111.614C291.318 111.74 291.157 111.887 291.073 112.055C290.989 112.223 290.947 112.405 290.947 112.601C290.947 112.979 291.052 113.273 291.262 113.483C291.486 113.679 291.808 113.777 292.228 113.777C292.984 113.777 293.565 113.581 293.971 113.189C293.971 113.175 293.971 113.154 293.971 113.126V111.551C293.467 111.453 292.963 111.404 292.459 111.404ZM296.911 115.625L294.328 116.318C294.272 116.094 294.223 115.856 294.181 115.604C293.439 116.08 292.683 116.318 291.913 116.318C290.807 116.318 289.911 116.01 289.225 115.394C288.539 114.764 288.196 113.875 288.196 112.727C288.196 111.761 288.56 110.97 289.288 110.354C290.016 109.738 291.073 109.43 292.459 109.43C292.935 109.43 293.439 109.472 293.971 109.556V108.821C293.971 108.457 293.852 108.156 293.614 107.918C293.39 107.666 293.033 107.54 292.543 107.54C291.857 107.54 291.374 107.764 291.094 108.212L288.532 107.54C288.588 107.316 288.7 107.085 288.868 106.847C289.036 106.595 289.267 106.336 289.561 106.07C289.855 105.79 290.254 105.559 290.758 105.377C291.262 105.195 291.829 105.104 292.459 105.104C293.327 105.104 294.083 105.279 294.727 105.629C295.371 105.965 295.847 106.413 296.155 106.973C296.477 107.519 296.638 108.135 296.638 108.821V113.336C296.638 114.176 296.729 114.939 296.911 115.625ZM306.815 107.498L304.19 108.212C304.148 107.974 303.987 107.785 303.707 107.645C303.427 107.505 303.077 107.435 302.657 107.435C302.349 107.435 302.076 107.47 301.838 107.54C301.614 107.61 301.439 107.715 301.313 107.855C301.187 107.995 301.124 108.156 301.124 108.338C301.124 108.604 301.264 108.821 301.544 108.989C301.824 109.143 302.195 109.227 302.657 109.241C304.113 109.269 305.275 109.605 306.143 110.249C307.025 110.879 307.466 111.726 307.466 112.79C307.466 113.84 307.025 114.694 306.143 115.352C305.261 115.996 304.099 116.318 302.657 116.318C301.425 116.318 300.389 116.08 299.549 115.604C298.723 115.114 298.191 114.463 297.953 113.651L300.578 112.937C300.662 113.231 300.893 113.462 301.271 113.63C301.649 113.798 302.111 113.882 302.657 113.882C303.063 113.882 303.42 113.833 303.728 113.735C304.05 113.623 304.295 113.483 304.463 113.315C304.631 113.133 304.715 112.923 304.715 112.685C304.715 112.321 304.526 112.034 304.148 111.824C303.77 111.614 303.266 111.502 302.636 111.488C301.348 111.46 300.312 111.159 299.528 110.585C298.758 110.011 298.373 109.248 298.373 108.296C298.373 107.344 298.765 106.574 299.549 105.986C300.333 105.398 301.369 105.104 302.657 105.104C303.735 105.104 304.645 105.321 305.387 105.755C306.129 106.189 306.605 106.77 306.815 107.498ZM317.849 105.335L314.132 116.087L313.586 117.536C313.39 118.026 313.194 118.453 312.998 118.817C312.802 119.181 312.543 119.552 312.221 119.93C311.899 120.308 311.507 120.595 311.045 120.791C310.597 121.001 310.086 121.106 309.512 121.106C309.05 121.106 308.581 121.043 308.105 120.917L308.777 118.397C309.043 118.467 309.288 118.502 309.512 118.502C310.058 118.502 310.471 118.138 310.751 117.41L311.255 116.087L307.559 105.335H310.394L312.074 110.081L312.683 112.139H312.725C312.977 111.201 313.18 110.515 313.334 110.081L315.014 105.335H317.849Z" fill="black"/>
</svg>
