<svg width="310" height="113" viewBox="0 0 310 113" fill="none" xmlns="http://www.w3.org/2000/svg">
<path d="M77.1454 0.224051L10.0508 11.9548C4.51572 12.9214 0 18.2122 0 24.5597V64.2053C0 70.7086 4.51322 75.8752 10.0182 76.871L77.178 89.2884C85.3428 90.7809 92.0626 84.8985 92.0626 76.4035V13.6981C92.0626 4.33153 85.3403 -1.2076 77.1454 0.224051V0.224051Z" fill="#00E78E"/>
<path d="M102.499 45.6886C102.499 50.3561 104.869 53.4069 108.741 53.4069C111.333 53.4069 113.319 52.3477 114.952 49.4236L120.778 52.1919C118.503 57.171 113.99 59.4743 108.58 59.4743C100.866 59.4743 95.3613 53.7477 95.3613 45.6886C95.3613 37.5978 100.866 31.9029 108.58 31.9029C113.958 31.9029 118.503 34.2062 120.778 39.1829L114.952 41.9536C113.319 38.9978 111.333 37.9703 108.741 37.9703C104.869 37.9703 102.499 41.0211 102.499 45.6886ZM150.644 45.6886C150.644 53.7161 144.914 59.4743 136.621 59.4743C128.331 59.4743 122.666 53.7185 122.666 45.6886C122.666 37.722 128.331 31.9029 136.624 31.9029C144.947 31.9029 150.644 37.722 150.644 45.6886ZM143.536 45.6886C143.536 41.1136 140.944 37.9703 136.624 37.9703C132.366 37.9703 129.771 41.1136 129.771 45.6886C129.771 50.2952 132.366 53.4069 136.624 53.4069C140.944 53.4069 143.536 50.2952 143.536 45.6886ZM162.231 40.4295V58.7877H155.22V32.5578H160.951L161.432 35.0803C163.736 33.0253 166.871 31.8736 170.01 31.8736C174.17 31.8736 176.476 33.3369 177.724 35.6086C180.093 33.2128 183.484 31.8736 186.848 31.8736C194.787 31.8736 195.907 37.2569 195.907 42.7328V58.7926H188.894V42.5477C188.894 38.9394 187.807 37.9436 185.182 37.9436C182.973 37.9436 180.637 39.0003 179.036 40.5561C179.101 41.3036 179.101 42.0169 179.101 42.7669V58.8243H172.088V42.5794C172.088 38.9686 171.001 37.9728 168.377 37.9728C166.135 37.9436 163.929 38.971 162.231 40.4319V40.4295ZM209.031 56.706V67.9693H202.02V32.587H207.751L208.294 35.5745C210.28 33.3662 213 31.9029 216.234 31.9029C223.565 31.9029 228.909 37.6587 228.909 45.6886C228.909 53.6552 223.565 59.4743 216.234 59.4743C213.354 59.4743 210.919 58.4469 209.031 56.706ZM221.771 45.6886C221.771 41.0211 219.242 37.9703 215.402 37.9703C211.24 37.9703 209.031 41.0211 209.031 45.6886C209.031 50.3561 211.24 53.4069 215.402 53.4069C219.242 53.4069 221.771 50.3561 221.771 45.6886ZM240.112 59.0702C235.248 59.0702 232.398 56.611 232.398 51.1036V22.1004H239.411V49.6403C239.411 51.7877 240.21 52.6277 242.066 52.6277V58.9776C241.522 59.0069 240.849 59.0702 240.112 59.0702ZM249.878 20.2013C252.372 20.2013 254.293 22.1321 254.293 24.5596C254.293 26.8629 252.342 28.7912 249.878 28.7912C247.443 28.7912 245.459 26.8629 245.459 24.5596C245.459 22.1321 247.443 20.2013 249.878 20.2013ZM246.356 32.587H253.366V58.8243H246.354L246.356 32.587ZM265.083 45.6886C265.083 50.3561 267.45 53.4069 271.324 53.4069C273.916 53.4069 275.902 52.3477 277.533 49.4236L283.361 52.1919C281.087 57.171 276.574 59.4743 271.164 59.4743C263.45 59.4743 257.942 53.7477 257.942 45.6886C257.942 37.5978 263.45 31.9029 271.164 31.9029C276.541 31.9029 281.087 34.2062 283.361 39.1829L277.533 41.9536C275.902 38.9978 273.916 37.9703 271.324 37.9703C267.45 37.9703 265.083 41.0211 265.083 45.6886ZM303.142 56.4869C301.191 58.3227 298.341 59.5376 295.363 59.5376C289.986 59.5376 285.217 55.771 285.217 50.6677C285.217 45.0969 289.953 41.7686 295.749 41.7686C298.661 41.7686 300.615 42.8253 301.957 44.0086V41.2695C301.957 39.122 300.167 37.5978 296.836 37.5978C294.852 37.5978 292.355 37.9703 289.507 39.4969L287.521 34.4569C290.977 32.7112 293.955 31.9029 298.053 31.9029C305.318 31.9029 309 35.8862 309 42.4528V58.8218H303.463L303.142 56.4869ZM292.355 50.6677C292.355 52.7519 294.338 54.1227 296.836 54.1227C299.365 54.1227 301.254 52.7519 301.319 50.6677C301.319 48.5836 299.43 47.1519 296.836 47.1519C294.338 47.1519 292.355 48.5836 292.355 50.6677ZM75.8984 59.4743C71.5755 59.4743 68.1843 57.5752 65.5896 53.7477L69.9425 50.2952C72.4721 53.1877 74.1377 53.9669 76.6973 53.9669C78.5232 53.9669 79.8656 53.0319 79.8656 51.6003C79.8656 49.8277 78.1375 49.0194 73.4639 48.0211C69.0484 47.0886 66.3585 44.7244 66.3585 39.9328C66.3585 35.482 70.2005 31.747 76.507 31.747C80.9225 31.747 84.1559 33.8312 85.9492 36.2587L81.6288 40.0253C80.6996 38.7495 78.7786 37.442 76.1213 37.442C73.9774 37.442 72.5673 38.3429 72.5673 39.9011C72.5673 41.2695 73.4339 42.1095 77.2108 42.9495C82.811 44.1936 86.2046 46.3095 86.2046 51.1961C86.2046 56.2677 81.7215 59.4743 75.8984 59.4743ZM64.2772 44.6295C64.2772 37.2862 59.5712 31.9029 51.3462 31.9029C43.3116 31.9029 37.9017 37.4103 37.9017 45.6886C37.9017 53.7161 43.8876 59.4743 51.8571 59.4743C57.6176 59.4743 61.2041 57.171 63.9892 52.4403L58.389 49.6086C56.6609 52.3794 54.1313 53.4994 51.8571 53.4994C48.0802 53.5627 45.7109 51.4469 45.1048 48.0528H63.9892C64.2146 46.9644 64.2772 45.6229 64.2772 44.6295ZM45.2626 42.7011C45.8712 39.3095 47.8573 37.2545 51.2485 37.2545C54.7699 37.2545 56.8512 39.3095 57.1392 42.7011H45.2626ZM27.37 22.1004V34.6736C25.4816 32.9303 23.0472 31.9029 20.1995 31.9029C12.8687 31.9029 7.52393 37.722 7.52393 45.6886C7.52393 53.7185 12.8687 59.4743 20.1995 59.4743C23.4304 59.4743 26.1228 58.0135 28.1389 55.8027L28.6824 58.7902H34.4129V22.1004H27.37ZM20.9985 53.4069C17.159 53.4069 14.6294 50.3561 14.6294 45.6886C14.6294 41.0211 17.159 37.9703 20.9985 37.9703C25.161 37.9703 27.37 41.0211 27.37 45.6886C27.37 50.3561 25.161 53.4069 20.9985 53.4069Z" fill="black"/>
<path d="M295.357 78.0853L233.297 82.5521C228.177 82.9202 224 84.9347 224 87.3517V102.448C224 104.924 228.175 106.891 233.267 107.27L295.387 111.999C302.939 112.567 309.155 110.327 309.155 107.092V83.2159C309.155 79.6493 302.937 77.5402 295.357 78.0853V78.0853Z" fill="#00E78E"/>
<path d="M252.545 90.327L249.794 91.062C249.696 90.698 249.409 90.404 248.933 90.18C248.471 89.956 247.897 89.844 247.211 89.844C246.427 89.844 245.797 89.984 245.321 90.264C244.845 90.544 244.607 90.915 244.607 91.377C244.607 91.685 244.705 91.951 244.901 92.175C245.111 92.385 245.405 92.56 245.783 92.7C246.175 92.826 246.651 92.903 247.211 92.931C249.185 93.029 250.711 93.491 251.789 94.317C252.867 95.129 253.406 96.235 253.406 97.635C253.406 99.021 252.832 100.148 251.684 101.016C250.55 101.884 249.059 102.318 247.211 102.318C246.161 102.318 245.209 102.171 244.355 101.877C243.501 101.583 242.801 101.17 242.255 100.638C241.709 100.106 241.338 99.483 241.142 98.769L243.893 98.034C244.019 98.524 244.383 98.916 244.985 99.21C245.587 99.49 246.329 99.63 247.211 99.63C248.191 99.63 248.989 99.448 249.605 99.084C250.221 98.706 250.529 98.223 250.529 97.635C250.529 97.229 250.396 96.886 250.13 96.606C249.878 96.312 249.5 96.081 248.996 95.913C248.506 95.745 247.904 95.64 247.19 95.598C245.44 95.514 244.089 95.108 243.137 94.38C242.199 93.638 241.73 92.637 241.73 91.377C241.73 90.117 242.234 89.102 243.242 88.332C244.25 87.548 245.573 87.156 247.211 87.156C248.121 87.156 248.947 87.289 249.689 87.555C250.445 87.821 251.061 88.192 251.537 88.668C252.027 89.144 252.363 89.697 252.545 90.327ZM270.648 102.087H267.96V95.703C267.96 94.947 267.82 94.415 267.54 94.107C267.26 93.799 266.84 93.645 266.28 93.645C265.72 93.645 265.216 93.827 264.768 94.191C264.334 94.555 264.117 95.059 264.117 95.703V102.087H261.429V95.703C261.429 95.185 261.359 94.772 261.219 94.464C261.093 94.156 260.911 93.946 260.673 93.834C260.435 93.708 260.127 93.645 259.749 93.645C259.189 93.645 258.685 93.827 258.237 94.191C257.789 94.555 257.565 95.059 257.565 95.703V102.087H254.898V91.335H257.565V92.238C258.293 91.482 259.168 91.104 260.19 91.104C261.758 91.104 262.871 91.727 263.529 92.973C263.879 92.399 264.327 91.944 264.873 91.608C265.433 91.272 266.049 91.104 266.721 91.104C267.897 91.104 268.842 91.489 269.556 92.259C270.284 93.015 270.648 94.163 270.648 95.703V102.087ZM276.459 97.404C276.095 97.404 275.794 97.474 275.556 97.614C275.318 97.74 275.157 97.887 275.073 98.055C274.989 98.223 274.947 98.405 274.947 98.601C274.947 98.979 275.052 99.273 275.262 99.483C275.486 99.679 275.808 99.777 276.228 99.777C276.984 99.777 277.565 99.581 277.971 99.189C277.971 99.175 277.971 99.154 277.971 99.126V97.551C277.467 97.453 276.963 97.404 276.459 97.404ZM280.911 101.625L278.328 102.318C278.272 102.094 278.223 101.856 278.181 101.604C277.439 102.08 276.683 102.318 275.913 102.318C274.807 102.318 273.911 102.01 273.225 101.394C272.539 100.764 272.196 99.875 272.196 98.727C272.196 97.761 272.56 96.97 273.288 96.354C274.016 95.738 275.073 95.43 276.459 95.43C276.935 95.43 277.439 95.472 277.971 95.556V94.821C277.971 94.457 277.852 94.156 277.614 93.918C277.39 93.666 277.033 93.54 276.543 93.54C275.857 93.54 275.374 93.764 275.094 94.212L272.532 93.54C272.588 93.316 272.7 93.085 272.868 92.847C273.036 92.595 273.267 92.336 273.561 92.07C273.855 91.79 274.254 91.559 274.758 91.377C275.262 91.195 275.829 91.104 276.459 91.104C277.327 91.104 278.083 91.279 278.727 91.629C279.371 91.965 279.847 92.413 280.155 92.973C280.477 93.519 280.638 94.135 280.638 94.821V99.336C280.638 100.176 280.729 100.939 280.911 101.625ZM290.815 93.498L288.19 94.212C288.148 93.974 287.987 93.785 287.707 93.645C287.427 93.505 287.077 93.435 286.657 93.435C286.349 93.435 286.076 93.47 285.838 93.54C285.614 93.61 285.439 93.715 285.313 93.855C285.187 93.995 285.124 94.156 285.124 94.338C285.124 94.604 285.264 94.821 285.544 94.989C285.824 95.143 286.195 95.227 286.657 95.241C288.113 95.269 289.275 95.605 290.143 96.249C291.025 96.879 291.466 97.726 291.466 98.79C291.466 99.84 291.025 100.694 290.143 101.352C289.261 101.996 288.099 102.318 286.657 102.318C285.425 102.318 284.389 102.08 283.549 101.604C282.723 101.114 282.191 100.463 281.953 99.651L284.578 98.937C284.662 99.231 284.893 99.462 285.271 99.63C285.649 99.798 286.111 99.882 286.657 99.882C287.063 99.882 287.42 99.833 287.728 99.735C288.05 99.623 288.295 99.483 288.463 99.315C288.631 99.133 288.715 98.923 288.715 98.685C288.715 98.321 288.526 98.034 288.148 97.824C287.77 97.614 287.266 97.502 286.636 97.488C285.348 97.46 284.312 97.159 283.528 96.585C282.758 96.011 282.373 95.248 282.373 94.296C282.373 93.344 282.765 92.574 283.549 91.986C284.333 91.398 285.369 91.104 286.657 91.104C287.735 91.104 288.645 91.321 289.387 91.755C290.129 92.189 290.605 92.77 290.815 93.498ZM301.849 91.335L298.132 102.087L297.586 103.536C297.39 104.026 297.194 104.453 296.998 104.817C296.802 105.181 296.543 105.552 296.221 105.93C295.899 106.308 295.507 106.595 295.045 106.791C294.597 107.001 294.086 107.106 293.512 107.106C293.05 107.106 292.581 107.043 292.105 106.917L292.777 104.397C293.043 104.467 293.288 104.502 293.512 104.502C294.058 104.502 294.471 104.138 294.751 103.41L295.255 102.087L291.559 91.335H294.394L296.074 96.081L296.683 98.139H296.725C296.977 97.201 297.18 96.515 297.334 96.081L299.014 91.335H301.849Z" fill="black"/>
</svg>
