<svg width="185" height="44" viewBox="0 0 185 44" fill="none" xmlns="http://www.w3.org/2000/svg">
<path d="M43.1343 0.0750841L5.9658 4.00631C2.89953 4.33024 0.397949 6.10328 0.397949 8.23045V21.5165C0.397949 23.6959 2.89814 25.4273 5.94776 25.761L43.1523 29.9223C47.6754 30.4225 51.3979 28.4512 51.3979 25.6044V4.59052C51.3979 1.45158 47.674 -0.404691 43.1343 0.0750841V0.0750841Z" fill="black"/>
<path d="M140.403 33.0275L113.437 34.469C111.213 34.5878 109.398 35.2379 109.398 36.0178V40.8894C109.398 41.6885 111.212 42.3233 113.424 42.4457L140.416 43.9715C143.697 44.1549 146.398 43.4321 146.398 42.3883V34.6832C146.398 33.5322 143.696 32.8516 140.403 33.0275V33.0275Z" fill="black"/>
<path d="M121.886 36.52L120.838 36.8C120.801 36.6613 120.691 36.5493 120.51 36.464C120.334 36.3787 120.115 36.336 119.854 36.336C119.555 36.336 119.315 36.3893 119.134 36.496C118.953 36.6027 118.862 36.744 118.862 36.92C118.862 37.0373 118.899 37.1387 118.974 37.224C119.054 37.304 119.166 37.3707 119.31 37.424C119.459 37.472 119.641 37.5013 119.854 37.512C120.606 37.5493 121.187 37.7253 121.598 38.04C122.009 38.3493 122.214 38.7707 122.214 39.304C122.214 39.832 121.995 40.2613 121.558 40.592C121.126 40.9227 120.558 41.088 119.854 41.088C119.454 41.088 119.091 41.032 118.766 40.92C118.441 40.808 118.174 40.6507 117.966 40.448C117.758 40.2453 117.617 40.008 117.542 39.736L118.59 39.456C118.638 39.6427 118.777 39.792 119.006 39.904C119.235 40.0107 119.518 40.064 119.854 40.064C120.227 40.064 120.531 39.9947 120.766 39.856C121.001 39.712 121.118 39.528 121.118 39.304C121.118 39.1493 121.067 39.0187 120.966 38.912C120.87 38.8 120.726 38.712 120.534 38.648C120.347 38.584 120.118 38.544 119.846 38.528C119.179 38.496 118.665 38.3413 118.302 38.064C117.945 37.7813 117.766 37.4 117.766 36.92C117.766 36.44 117.958 36.0533 118.342 35.76C118.726 35.4613 119.23 35.312 119.854 35.312C120.201 35.312 120.515 35.3627 120.798 35.464C121.086 35.5653 121.321 35.7067 121.502 35.888C121.689 36.0693 121.817 36.28 121.886 36.52ZM128.782 41H127.758V38.568C127.758 38.28 127.705 38.0773 127.598 37.96C127.492 37.8427 127.332 37.784 127.118 37.784C126.905 37.784 126.713 37.8533 126.542 37.992C126.377 38.1307 126.294 38.3227 126.294 38.568V41H125.27V38.568C125.27 38.3707 125.244 38.2133 125.19 38.096C125.142 37.9787 125.073 37.8987 124.982 37.856C124.892 37.808 124.774 37.784 124.63 37.784C124.417 37.784 124.225 37.8533 124.054 37.992C123.884 38.1307 123.798 38.3227 123.798 38.568V41H122.782V36.904H123.798V37.248C124.076 36.96 124.409 36.816 124.798 36.816C125.396 36.816 125.82 37.0533 126.07 37.528C126.204 37.3093 126.374 37.136 126.582 37.008C126.796 36.88 127.03 36.816 127.286 36.816C127.734 36.816 128.094 36.9627 128.366 37.256C128.644 37.544 128.782 37.9813 128.782 38.568V41ZM130.996 39.216C130.857 39.216 130.743 39.2427 130.652 39.296C130.561 39.344 130.5 39.4 130.468 39.464C130.436 39.528 130.42 39.5973 130.42 39.672C130.42 39.816 130.46 39.928 130.54 40.008C130.625 40.0827 130.748 40.12 130.908 40.12C131.196 40.12 131.417 40.0453 131.572 39.896C131.572 39.8907 131.572 39.8827 131.572 39.872V39.272C131.38 39.2347 131.188 39.216 130.996 39.216ZM132.692 40.824L131.708 41.088C131.687 41.0027 131.668 40.912 131.652 40.816C131.369 40.9973 131.081 41.088 130.788 41.088C130.367 41.088 130.025 40.9707 129.764 40.736C129.503 40.496 129.372 40.1573 129.372 39.72C129.372 39.352 129.511 39.0507 129.788 38.816C130.065 38.5813 130.468 38.464 130.996 38.464C131.177 38.464 131.369 38.48 131.572 38.512V38.232C131.572 38.0933 131.527 37.9787 131.436 37.888C131.351 37.792 131.215 37.744 131.028 37.744C130.767 37.744 130.583 37.8293 130.476 38L129.5 37.744C129.521 37.6587 129.564 37.5707 129.628 37.48C129.692 37.384 129.78 37.2853 129.892 37.184C130.004 37.0773 130.156 36.9893 130.348 36.92C130.54 36.8507 130.756 36.816 130.996 36.816C131.327 36.816 131.615 36.8827 131.86 37.016C132.105 37.144 132.287 37.3147 132.404 37.528C132.527 37.736 132.588 37.9707 132.588 38.232V39.952C132.588 40.272 132.623 40.5627 132.692 40.824ZM136.465 37.728L135.465 38C135.449 37.9093 135.387 37.8373 135.281 37.784C135.174 37.7307 135.041 37.704 134.881 37.704C134.763 37.704 134.659 37.7173 134.569 37.744C134.483 37.7707 134.417 37.8107 134.369 37.864C134.321 37.9173 134.297 37.9787 134.297 38.048C134.297 38.1493 134.35 38.232 134.457 38.296C134.563 38.3547 134.705 38.3867 134.881 38.392C135.435 38.4027 135.878 38.5307 136.209 38.776C136.545 39.016 136.713 39.3387 136.713 39.744C136.713 40.144 136.545 40.4693 136.209 40.72C135.873 40.9653 135.43 41.088 134.881 41.088C134.411 41.088 134.017 40.9973 133.697 40.816C133.382 40.6293 133.179 40.3813 133.089 40.072L134.089 39.8C134.121 39.912 134.209 40 134.353 40.064C134.497 40.128 134.673 40.16 134.881 40.16C135.035 40.16 135.171 40.1413 135.289 40.104C135.411 40.0613 135.505 40.008 135.569 39.944C135.633 39.8747 135.665 39.7947 135.665 39.704C135.665 39.5653 135.593 39.456 135.449 39.376C135.305 39.296 135.113 39.2533 134.873 39.248C134.382 39.2373 133.987 39.1227 133.689 38.904C133.395 38.6853 133.249 38.3947 133.249 38.032C133.249 37.6693 133.398 37.376 133.697 37.152C133.995 36.928 134.39 36.816 134.881 36.816C135.291 36.816 135.638 36.8987 135.921 37.064C136.203 37.2293 136.385 37.4507 136.465 37.728ZM140.668 36.904L139.252 41L139.044 41.552C138.97 41.7387 138.895 41.9013 138.82 42.04C138.746 42.1787 138.647 42.32 138.524 42.464C138.402 42.608 138.252 42.7173 138.076 42.792C137.906 42.872 137.711 42.912 137.492 42.912C137.316 42.912 137.138 42.888 136.956 42.84L137.212 41.88C137.314 41.9067 137.407 41.92 137.492 41.92C137.7 41.92 137.858 41.7813 137.964 41.504L138.156 41L136.748 36.904H137.828L138.468 38.712L138.7 39.496H138.716C138.812 39.1387 138.89 38.8773 138.948 38.712L139.588 36.904H140.668Z" fill="white"/>
<path d="M13.9579 19.4C14.4539 20.04 15.1179 20.36 15.9499 20.36C16.7979 20.36 17.4699 20.04 17.9659 19.4C18.4619 18.76 18.7099 17.912 18.7099 16.856C18.7099 15.8 18.4619 14.952 17.9659 14.312C17.4699 13.672 16.7979 13.352 15.9499 13.352C15.5499 13.352 15.1739 13.44 14.8219 13.616C14.4859 13.776 14.1979 14.008 13.9579 14.312C13.7179 14.616 13.5339 14.984 13.4059 15.416C13.2779 15.848 13.2139 16.328 13.2139 16.856C13.2139 17.912 13.4619 18.76 13.9579 19.4ZM18.7099 11.792V5.384H21.758V23H18.7099V21.92C17.8939 22.816 16.8779 23.264 15.6619 23.264C14.5099 23.264 13.5019 22.968 12.6379 22.376C11.7739 21.768 11.1259 20.992 10.6939 20.048C10.2779 19.088 10.0699 18.024 10.0699 16.856C10.0699 15.688 10.2779 14.632 10.6939 13.688C11.1259 12.728 11.7739 11.952 12.6379 11.36C13.5019 10.752 14.5099 10.448 15.6619 10.448C16.8779 10.448 17.8939 10.896 18.7099 11.792ZM31.1517 13.904C30.7037 13.536 30.1677 13.352 29.5437 13.352C28.9197 13.352 28.3837 13.536 27.9357 13.904C27.5037 14.272 27.1997 14.776 27.0237 15.416H32.0877C31.9117 14.776 31.5997 14.272 31.1517 13.904ZM25.2717 12.224C26.3597 11.04 27.7837 10.448 29.5437 10.448C31.3037 10.448 32.7277 11.04 33.8157 12.224C34.9037 13.408 35.4477 14.952 35.4477 16.856C35.4477 17.112 35.4317 17.392 35.3997 17.696H26.8797C27.0077 18.528 27.3037 19.184 27.7677 19.664C28.2477 20.128 28.8397 20.36 29.5437 20.36C30.1517 20.36 30.6957 20.224 31.1757 19.952C31.6717 19.68 32.0477 19.28 32.3037 18.752L34.9917 20.312C34.4477 21.256 33.7037 21.984 32.7597 22.496C31.8157 23.008 30.7437 23.264 29.5437 23.264C27.7837 23.264 26.3597 22.672 25.2717 21.488C24.1997 20.304 23.6637 18.76 23.6637 16.856C23.6637 14.952 24.1997 13.408 25.2717 12.224ZM46.4658 13.184L43.4658 14C43.4178 13.728 43.2338 13.512 42.9138 13.352C42.5938 13.192 42.1938 13.112 41.7138 13.112C41.3618 13.112 41.0498 13.152 40.7778 13.232C40.5218 13.312 40.3218 13.432 40.1778 13.592C40.0338 13.752 39.9618 13.936 39.9618 14.144C39.9618 14.448 40.1218 14.696 40.4418 14.888C40.7618 15.064 41.1858 15.16 41.7138 15.176C43.3778 15.208 44.7058 15.592 45.6978 16.328C46.7058 17.048 47.2098 18.016 47.2098 19.232C47.2098 20.432 46.7058 21.408 45.6978 22.16C44.6898 22.896 43.3618 23.264 41.7138 23.264C40.3058 23.264 39.1218 22.992 38.1618 22.448C37.2178 21.888 36.6098 21.144 36.3378 20.216L39.3378 19.4C39.4338 19.736 39.6978 20 40.1298 20.192C40.5618 20.384 41.0898 20.48 41.7138 20.48C42.1778 20.48 42.5858 20.424 42.9378 20.312C43.3058 20.184 43.5858 20.024 43.7778 19.832C43.9698 19.624 44.0658 19.384 44.0658 19.112C44.0658 18.696 43.8498 18.368 43.4178 18.128C42.9858 17.888 42.4098 17.76 41.6898 17.744C40.2178 17.712 39.0338 17.368 38.1378 16.712C37.2578 16.056 36.8178 15.184 36.8178 14.096C36.8178 13.008 37.2658 12.128 38.1618 11.456C39.0578 10.784 40.2418 10.448 41.7138 10.448C42.9458 10.448 43.9858 10.696 44.8338 11.192C45.6818 11.688 46.2258 12.352 46.4658 13.184Z" fill="white"/>
<path d="M61.5828 10.448C62.6868 10.448 63.6628 10.688 64.5108 11.168C65.3748 11.648 66.0548 12.312 66.5508 13.16L63.8868 14.72C63.3908 13.808 62.6228 13.352 61.5828 13.352C61.1828 13.352 60.8068 13.44 60.4548 13.616C60.1188 13.776 59.8308 14.008 59.5908 14.312C59.3508 14.616 59.1668 14.984 59.0388 15.416C58.9108 15.848 58.8468 16.328 58.8468 16.856C58.8468 17.912 59.0948 18.76 59.5908 19.4C60.0868 20.04 60.7508 20.36 61.5828 20.36C62.6228 20.36 63.3908 19.904 63.8868 18.992L66.5508 20.528C66.0548 21.392 65.3748 22.064 64.5108 22.544C63.6628 23.024 62.6868 23.264 61.5828 23.264C59.8228 23.264 58.3988 22.672 57.3108 21.488C56.2388 20.304 55.7028 18.76 55.7028 16.856C55.7028 14.952 56.2388 13.408 57.3108 12.224C58.3988 11.04 59.8228 10.448 61.5828 10.448ZM68.7483 12.224C69.8363 11.04 71.2603 10.448 73.0203 10.448C74.7803 10.448 76.2043 11.04 77.2923 12.224C78.3803 13.408 78.9243 14.952 78.9243 16.856C78.9243 18.76 78.3803 20.304 77.2923 21.488C76.2043 22.672 74.7803 23.264 73.0203 23.264C71.2603 23.264 69.8363 22.672 68.7483 21.488C67.6763 20.304 67.1403 18.76 67.1403 16.856C67.1403 14.952 67.6763 13.408 68.7483 12.224ZM71.0283 19.4C71.5243 20.04 72.1883 20.36 73.0203 20.36C73.8683 20.36 74.5403 20.04 75.0363 19.4C75.5323 18.76 75.7803 17.912 75.7803 16.856C75.7803 15.8 75.5323 14.952 75.0363 14.312C74.5403 13.672 73.8683 13.352 73.0203 13.352C72.6203 13.352 72.2443 13.44 71.8923 13.616C71.5563 13.776 71.2683 14.008 71.0283 14.312C70.7883 14.616 70.6043 14.984 70.4763 15.416C70.3483 15.848 70.2843 16.328 70.2843 16.856C70.2843 17.912 70.5323 18.76 71.0283 19.4ZM98.7933 23H95.7213V15.704C95.7213 14.84 95.5613 14.232 95.2413 13.88C94.9213 13.528 94.4413 13.352 93.8013 13.352C93.1613 13.352 92.5853 13.56 92.0733 13.976C91.5773 14.392 91.3293 14.968 91.3293 15.704V23H88.2573V15.704C88.2573 15.112 88.1773 14.64 88.0173 14.288C87.8733 13.936 87.6653 13.696 87.3933 13.568C87.1213 13.424 86.7693 13.352 86.3373 13.352C85.6973 13.352 85.1213 13.56 84.6093 13.976C84.0973 14.392 83.8413 14.968 83.8413 15.704V23H80.7933V10.712H83.8413V11.744C84.6733 10.88 85.6733 10.448 86.8413 10.448C88.6333 10.448 89.9053 11.16 90.6573 12.584C91.0573 11.928 91.5693 11.408 92.1933 11.024C92.8333 10.64 93.5373 10.448 94.3053 10.448C95.6493 10.448 96.7293 10.888 97.5453 11.768C98.3773 12.632 98.7933 13.944 98.7933 15.704V23ZM104.882 19.4C105.394 20.04 106.066 20.36 106.898 20.36C107.73 20.36 108.394 20.04 108.89 19.4C109.402 18.76 109.658 17.912 109.658 16.856C109.658 15.8 109.402 14.952 108.89 14.312C108.394 13.672 107.73 13.352 106.898 13.352C106.354 13.352 105.874 13.496 105.458 13.784C105.042 14.072 104.714 14.48 104.474 15.008C104.25 15.536 104.138 16.152 104.138 16.856C104.138 17.912 104.386 18.76 104.882 19.4ZM107.21 10.448C108.362 10.448 109.37 10.752 110.234 11.36C111.098 11.952 111.738 12.728 112.154 13.688C112.57 14.632 112.778 15.688 112.778 16.856C112.778 18.024 112.57 19.088 112.154 20.048C111.738 20.992 111.098 21.768 110.234 22.376C109.37 22.968 108.362 23.264 107.21 23.264C105.978 23.264 104.954 22.816 104.138 21.92V28.496H101.09V10.712H104.138V11.792C104.954 10.896 105.978 10.448 107.21 10.448ZM117.755 23H114.707V5.384H117.755V23ZM123.216 5.648V8.72H120.168V5.648H123.216ZM123.216 10.712V23H120.168V10.712H123.216ZM130.981 10.448C132.085 10.448 133.061 10.688 133.909 11.168C134.773 11.648 135.453 12.312 135.949 13.16L133.285 14.72C132.789 13.808 132.021 13.352 130.981 13.352C130.581 13.352 130.205 13.44 129.853 13.616C129.517 13.776 129.229 14.008 128.989 14.312C128.749 14.616 128.565 14.984 128.437 15.416C128.309 15.848 128.245 16.328 128.245 16.856C128.245 17.912 128.493 18.76 128.989 19.4C129.485 20.04 130.149 20.36 130.981 20.36C132.021 20.36 132.789 19.904 133.285 18.992L135.949 20.528C135.453 21.392 134.773 22.064 133.909 22.544C133.061 23.024 132.085 23.264 130.981 23.264C129.221 23.264 127.797 22.672 126.709 21.488C125.637 20.304 125.101 18.76 125.101 16.856C125.101 14.952 125.637 13.408 126.709 12.224C127.797 11.04 129.221 10.448 130.981 10.448ZM141.411 17.648C140.995 17.648 140.651 17.728 140.379 17.888C140.107 18.032 139.923 18.2 139.827 18.392C139.731 18.584 139.683 18.792 139.683 19.016C139.683 19.448 139.803 19.784 140.043 20.024C140.299 20.248 140.667 20.36 141.147 20.36C142.011 20.36 142.675 20.136 143.139 19.688C143.139 19.672 143.139 19.648 143.139 19.616V17.816C142.563 17.704 141.987 17.648 141.411 17.648ZM146.499 22.472L143.547 23.264C143.483 23.008 143.427 22.736 143.379 22.448C142.531 22.992 141.667 23.264 140.787 23.264C139.523 23.264 138.499 22.912 137.715 22.208C136.931 21.488 136.539 20.472 136.539 19.16C136.539 18.056 136.955 17.152 137.787 16.448C138.619 15.744 139.827 15.392 141.411 15.392C141.955 15.392 142.531 15.44 143.139 15.536V14.696C143.139 14.28 143.003 13.936 142.731 13.664C142.475 13.376 142.067 13.232 141.507 13.232C140.723 13.232 140.171 13.488 139.851 14L136.923 13.232C136.987 12.976 137.115 12.712 137.307 12.44C137.499 12.152 137.763 11.856 138.099 11.552C138.435 11.232 138.891 10.968 139.467 10.76C140.043 10.552 140.691 10.448 141.411 10.448C142.403 10.448 143.267 10.648 144.003 11.048C144.739 11.432 145.283 11.944 145.635 12.584C146.003 13.208 146.187 13.912 146.187 14.696V19.856C146.187 20.816 146.291 21.688 146.499 22.472Z" fill="black"/>
</svg>
