<svg width="346" height="114" viewBox="0 0 346 114" fill="none" xmlns="http://www.w3.org/2000/svg">
<path d="M86.1332 0.224051L11.2218 11.9548C5.04182 12.9214 0 18.2122 0 24.5597V64.2053C0 70.7086 5.03903 75.8752 11.1854 76.871L86.1696 89.2884C95.2857 90.7809 102.788 84.8985 102.788 76.4035V13.6981C102.788 4.33153 95.2829 -1.2076 86.1332 0.224051Z" fill="#00E78E"/>
<path d="M114.441 45.6886C114.441 50.3561 117.086 53.4069 121.409 53.4069C124.304 53.4069 126.521 52.3477 128.344 49.4236L134.849 52.1919C132.309 57.171 127.27 59.4743 121.23 59.4743C112.618 59.4743 106.471 53.7477 106.471 45.6886C106.471 37.5978 112.618 31.9029 121.23 31.9029C127.234 31.9029 132.309 34.2062 134.849 39.1829L128.344 41.9536C126.521 38.9978 124.304 37.9703 121.409 37.9703C117.086 37.9703 114.441 41.0211 114.441 45.6886ZM168.195 45.6886C168.195 53.7161 161.797 59.4743 152.538 59.4743C143.282 59.4743 136.957 53.7185 136.957 45.6886C136.957 37.722 143.282 31.9029 152.541 31.9029C161.833 31.9029 168.195 37.722 168.195 45.6886ZM160.259 45.6886C160.259 41.1136 157.365 37.9703 152.541 37.9703C147.787 37.9703 144.89 41.1136 144.89 45.6886C144.89 50.2952 147.787 53.4069 152.541 53.4069C157.365 53.4069 160.259 50.2952 160.259 45.6886ZM181.131 40.4295V58.7877H173.304V32.5578H179.702L180.239 35.0803C182.812 33.0253 186.313 31.8736 189.816 31.8736C194.461 31.8736 197.037 33.3369 198.429 35.6086C201.075 33.2128 204.861 31.8736 208.616 31.8736C217.481 31.8736 218.731 37.2569 218.731 42.7328V58.7926H210.901V42.5477C210.901 38.9394 209.687 37.9436 206.757 37.9436C204.29 37.9436 201.681 39.0002 199.895 40.5561C199.967 41.3036 199.967 42.0169 199.967 42.7669V58.8243H192.137V42.5794C192.137 38.9686 190.924 37.9728 187.993 37.9728C185.49 37.9436 183.027 38.971 181.131 40.4319V40.4295ZM233.384 56.706V67.9693H225.557V32.587H231.955L232.561 35.5745C234.779 33.3662 237.816 31.9029 241.426 31.9029C249.611 31.9029 255.578 37.6587 255.578 45.6886C255.578 53.6552 249.611 59.4743 241.426 59.4743C238.21 59.4743 235.492 58.4469 233.384 56.706ZM247.609 45.6886C247.609 41.0211 244.784 37.9703 240.498 37.9703C235.85 37.9703 233.384 41.0211 233.384 45.6886C233.384 50.3561 235.85 53.4069 240.498 53.4069C244.784 53.4069 247.609 50.3561 247.609 45.6886ZM268.086 59.0702C262.656 59.0702 259.474 56.611 259.474 51.1036V22.1004H267.303V49.6403C267.303 51.7877 268.195 52.6277 270.268 52.6277V58.9776C269.661 59.0069 268.908 59.0702 268.086 59.0702ZM278.989 20.2013C281.774 20.2013 283.919 22.1321 283.919 24.5596C283.919 26.8629 281.741 28.7912 278.989 28.7912C276.271 28.7912 274.057 26.8629 274.057 24.5596C274.057 22.1321 276.271 20.2013 278.989 20.2013ZM275.058 32.587H282.885V58.8243H275.055L275.058 32.587ZM295.966 45.6886C295.966 50.3561 298.609 53.4069 302.934 53.4069C305.829 53.4069 308.046 52.3477 309.867 49.4236L316.374 52.1919C313.835 57.171 308.796 59.4743 302.756 59.4743C294.143 59.4743 287.994 53.7477 287.994 45.6886C287.994 37.5978 294.143 31.9029 302.756 31.9029C308.759 31.9029 313.835 34.2062 316.374 39.1829L309.867 41.9536C308.046 38.9978 305.829 37.9703 302.934 37.9703C298.609 37.9703 295.966 41.0211 295.966 45.6886ZM338.459 56.4869C336.281 58.3227 333.099 59.5376 329.774 59.5376C323.77 59.5376 318.446 55.771 318.446 50.6677C318.446 45.0969 323.734 41.7686 330.204 41.7686C333.457 41.7686 335.638 42.8253 337.137 44.0086V41.2695C337.137 39.122 335.137 37.5978 331.418 37.5978C329.203 37.5978 326.415 37.9703 323.236 39.4969L321.018 34.4569C324.877 32.7112 328.202 31.9029 332.777 31.9029C340.889 31.9029 345 35.8862 345 42.4528V58.8218H338.817L338.459 56.4869ZM326.415 50.6677C326.415 52.7519 328.63 54.1227 331.418 54.1227C334.242 54.1227 336.351 52.7519 336.424 50.6677C336.424 48.5836 334.315 47.1519 331.418 47.1519C328.63 47.1519 326.415 48.5836 326.415 50.6677ZM84.7407 59.4743C79.9142 59.4743 76.128 57.5752 73.2309 53.7477L78.091 50.2952C80.9153 53.1877 82.7749 53.9669 85.6328 53.9669C87.6713 53.9669 89.1702 53.0319 89.1702 51.6003C89.1702 49.8277 87.2407 49.0194 82.0227 48.0211C77.0927 47.0886 74.0894 44.7244 74.0894 39.9328C74.0894 35.482 78.379 31.747 85.4202 31.747C90.3502 31.747 93.9603 33.8312 95.9625 36.2587L91.1388 40.0253C90.1013 38.7495 87.9565 37.442 84.9896 37.442C82.5959 37.442 81.0216 38.3429 81.0216 39.9011C81.0216 41.2695 81.9891 42.1095 86.206 42.9495C92.4587 44.1936 96.2477 46.3095 96.2477 51.1961C96.2477 56.2677 91.2423 59.4743 84.7407 59.4743ZM71.7657 44.6295C71.7657 37.2862 66.5113 31.9029 57.3281 31.9029C48.3574 31.9029 42.3173 37.4103 42.3173 45.6886C42.3173 53.7161 49.0006 59.4743 57.8986 59.4743C64.3302 59.4743 68.3345 57.171 71.4441 52.4403L65.1914 49.6086C63.262 52.3794 60.4376 53.4994 57.8986 53.4994C53.6817 53.5627 51.0363 51.4469 50.3596 48.0528H71.4441C71.6958 46.9644 71.7657 45.6229 71.7657 44.6295ZM50.5358 42.7011C51.2153 39.3095 53.4328 37.2545 57.219 37.2545C61.1507 37.2545 63.4745 39.3095 63.7961 42.7011H50.5358ZM30.5586 22.1004V34.6736C28.4502 32.9303 25.7321 31.9029 22.5527 31.9029C14.3677 31.9029 8.40033 37.722 8.40033 45.6886C8.40033 53.7185 14.3677 59.4743 22.5527 59.4743C26.16 59.4743 29.166 58.0135 31.4171 55.8027L32.0239 58.7902H38.422V22.1004H30.5586ZM23.4447 53.4069C19.1579 53.4069 16.3336 50.3561 16.3336 45.6886C16.3336 41.0211 19.1579 37.9703 23.4447 37.9703C28.0922 37.9703 30.5586 41.0211 30.5586 45.6886C30.5586 50.3561 28.0922 53.4069 23.4447 53.4069Z" fill="black"/>
<path d="M329.671 79.0853L260.38 83.5521C254.664 83.9202 250 85.9347 250 88.3517V103.448C250 105.924 254.661 107.891 260.346 108.27L329.704 112.999C338.136 113.567 345.076 111.327 345.076 108.092V84.2159C345.076 80.6493 338.134 78.5402 329.671 79.0853Z" fill="#00E78E"/>
<path d="M280.498 91.327L277.747 92.062C277.649 91.698 277.362 91.404 276.886 91.18C276.424 90.956 275.85 90.844 275.164 90.844C274.38 90.844 273.75 90.984 273.274 91.264C272.798 91.544 272.56 91.915 272.56 92.377C272.56 92.685 272.658 92.951 272.854 93.175C273.064 93.385 273.358 93.56 273.736 93.7C274.128 93.826 274.604 93.903 275.164 93.931C277.138 94.029 278.664 94.491 279.742 95.317C280.82 96.129 281.359 97.235 281.359 98.635C281.359 100.021 280.785 101.148 279.637 102.016C278.503 102.884 277.012 103.318 275.164 103.318C274.114 103.318 273.162 103.171 272.308 102.877C271.454 102.583 270.754 102.17 270.208 101.638C269.662 101.106 269.291 100.483 269.095 99.769L271.846 99.034C271.972 99.524 272.336 99.916 272.938 100.21C273.54 100.49 274.282 100.63 275.164 100.63C276.144 100.63 276.942 100.448 277.558 100.084C278.174 99.706 278.482 99.223 278.482 98.635C278.482 98.229 278.349 97.886 278.083 97.606C277.831 97.312 277.453 97.081 276.949 96.913C276.459 96.745 275.857 96.64 275.143 96.598C273.393 96.514 272.042 96.108 271.09 95.38C270.152 94.638 269.683 93.637 269.683 92.377C269.683 91.117 270.187 90.102 271.195 89.332C272.203 88.548 273.526 88.156 275.164 88.156C276.074 88.156 276.9 88.289 277.642 88.555C278.398 88.821 279.014 89.192 279.49 89.668C279.98 90.144 280.316 90.697 280.498 91.327ZM298.601 103.087H295.913V96.703C295.913 95.947 295.773 95.415 295.493 95.107C295.213 94.799 294.793 94.645 294.233 94.645C293.673 94.645 293.169 94.827 292.721 95.191C292.287 95.555 292.07 96.059 292.07 96.703V103.087H289.382V96.703C289.382 96.185 289.312 95.772 289.172 95.464C289.046 95.156 288.864 94.946 288.626 94.834C288.388 94.708 288.08 94.645 287.702 94.645C287.142 94.645 286.638 94.827 286.19 95.191C285.742 95.555 285.518 96.059 285.518 96.703V103.087H282.851V92.335H285.518V93.238C286.246 92.482 287.121 92.104 288.143 92.104C289.711 92.104 290.824 92.727 291.482 93.973C291.832 93.399 292.28 92.944 292.826 92.608C293.386 92.272 294.002 92.104 294.674 92.104C295.85 92.104 296.795 92.489 297.509 93.259C298.237 94.015 298.601 95.163 298.601 96.703V103.087ZM304.412 98.404C304.048 98.404 303.747 98.474 303.509 98.614C303.271 98.74 303.11 98.887 303.026 99.055C302.942 99.223 302.9 99.405 302.9 99.601C302.9 99.979 303.005 100.273 303.215 100.483C303.439 100.679 303.761 100.777 304.181 100.777C304.937 100.777 305.518 100.581 305.924 100.189C305.924 100.175 305.924 100.154 305.924 100.126V98.551C305.42 98.453 304.916 98.404 304.412 98.404ZM308.864 102.625L306.281 103.318C306.225 103.094 306.176 102.856 306.134 102.604C305.392 103.08 304.636 103.318 303.866 103.318C302.76 103.318 301.864 103.01 301.178 102.394C300.492 101.764 300.149 100.875 300.149 99.727C300.149 98.761 300.513 97.97 301.241 97.354C301.969 96.738 303.026 96.43 304.412 96.43C304.888 96.43 305.392 96.472 305.924 96.556V95.821C305.924 95.457 305.805 95.156 305.567 94.918C305.343 94.666 304.986 94.54 304.496 94.54C303.81 94.54 303.327 94.764 303.047 95.212L300.485 94.54C300.541 94.316 300.653 94.085 300.821 93.847C300.989 93.595 301.22 93.336 301.514 93.07C301.808 92.79 302.207 92.559 302.711 92.377C303.215 92.195 303.782 92.104 304.412 92.104C305.28 92.104 306.036 92.279 306.68 92.629C307.324 92.965 307.8 93.413 308.108 93.973C308.43 94.519 308.591 95.135 308.591 95.821V100.336C308.591 101.176 308.682 101.939 308.864 102.625ZM318.768 94.498L316.143 95.212C316.101 94.974 315.94 94.785 315.66 94.645C315.38 94.505 315.03 94.435 314.61 94.435C314.302 94.435 314.029 94.47 313.791 94.54C313.567 94.61 313.392 94.715 313.266 94.855C313.14 94.995 313.077 95.156 313.077 95.338C313.077 95.604 313.217 95.821 313.497 95.989C313.777 96.143 314.148 96.227 314.61 96.241C316.066 96.269 317.228 96.605 318.096 97.249C318.978 97.879 319.419 98.726 319.419 99.79C319.419 100.84 318.978 101.694 318.096 102.352C317.214 102.996 316.052 103.318 314.61 103.318C313.378 103.318 312.342 103.08 311.502 102.604C310.676 102.114 310.144 101.463 309.906 100.651L312.531 99.937C312.615 100.231 312.846 100.462 313.224 100.63C313.602 100.798 314.064 100.882 314.61 100.882C315.016 100.882 315.373 100.833 315.681 100.735C316.003 100.623 316.248 100.483 316.416 100.315C316.584 100.133 316.668 99.923 316.668 99.685C316.668 99.321 316.479 99.034 316.101 98.824C315.723 98.614 315.219 98.502 314.589 98.488C313.301 98.46 312.265 98.159 311.481 97.585C310.711 97.011 310.326 96.248 310.326 95.296C310.326 94.344 310.718 93.574 311.502 92.986C312.286 92.398 313.322 92.104 314.61 92.104C315.688 92.104 316.598 92.321 317.34 92.755C318.082 93.189 318.558 93.77 318.768 94.498ZM329.802 92.335L326.085 103.087L325.539 104.536C325.343 105.026 325.147 105.453 324.951 105.817C324.755 106.181 324.496 106.552 324.174 106.93C323.852 107.308 323.46 107.595 322.998 107.791C322.55 108.001 322.039 108.106 321.465 108.106C321.003 108.106 320.534 108.043 320.058 107.917L320.73 105.397C320.996 105.467 321.241 105.502 321.465 105.502C322.011 105.502 322.424 105.138 322.704 104.41L323.208 103.087L319.512 92.335H322.347L324.027 97.081L324.636 99.139H324.678C324.93 98.201 325.133 97.515 325.287 97.081L326.967 92.335H329.802Z" fill="black"/>
</svg>
